# xmcd CD database file
#
# Track frame offsets:
#	150
#	12200
#	32450
#	51695
#	66393
#	81150
#	99338
#	114250
#	125610
#	141028
#	154405
#	165268
#	177658
#	191648
#	206635
#	224623
#
# Disc length: 3211 seconds
#
# Revision: 0
# Processed by: cddbd v1.5.2PL0 Copyright (c) Steve Scherf et al.
# Submitted via: CDex 1.51
#
DISCID=e80c8910
DTITLE=Woody Herman - Crazy Rhythm
DYEAR=1900
DGENRE=Jazz
TTITLE0=The Good Earth
TTITLE1=Woodchoppers Ball
TTITLE2=It's Coolin' Time
TTITLE3=Fire Island
TTITLE4=Bamba Samba
TTITLE5=Prelude Ala Cha Cha
TTITLE6=Wildroot
TTITLE7=Black Orchid
TTITLE8=Bijou
TTITLE9=Blue Station
TTITLE10=Pillar To Post
TTITLE11=Carioca
TTITLE12=Original #2
TTITLE13=I Cover The Water Front
TTITLE14=Sinbad The Sailor
TTITLE15=Crazy Rhythm
EXTD=
EXTT0=
EXTT1=
EXTT2=
EXTT3=
EXTT4=
EXTT5=
EXTT6=
EXTT7=
EXTT8=
EXTT9=
EXTT10=
EXTT11=
EXTT12=
EXTT13=
EXTT14=
EXTT15=
PLAYORDER=
